PathFileType	4	(x/y/z)	S09_P20_T03
DataRate	CameraRate	NumFrames	NumMarkers	Units	OrigDataRate	OrigDataStartFrame	OrigNumFrames
240	240	4	51	mm	240	205	409
Frame#	Time	Sternum			R.Acromium			L.Acromium			Top.Head			R.ASIS			L.ASIS			R.PSIS			L.PSIS			R.Great.Tro			L.Great.Tro			R.Iliac.Crest			L.Iliac.Crest			V.Sacral			R.Thigh.Upper.Post			R.Thigh.Lower.Ant			R.Thigh.Lower.Post			R.Thigh.Upper.Ant			R.Knee.Lat			R.Knee.Med			R.Shank.Upper.Post			R.Shank.Lower.Ant			R.Shank.Lower.Post			R.Shank.Upper.Ant			R.Ankle.Lat			R.Ankle.Med			R.Heel.Upper			R.Heel.Med			R.Heel.Lat			R.Toe.Lat			R.Toe.Med			R.Toe.Tip			L.Thigh.Upper.Post			L.Thigh.Lower.Ant			L.Thigh.Lower.Post			L.Thigh.Upper.Ant			L.Knee.Lat			L.Knee.Med			L.Shank.Upper.Post			L.Shank.Lower.Ant			L.Shank.Lower.Post			L.Shank.Upper.Ant			L.Ankle.Lat			L.Ankle.Med			L.Heel.Upper			L.Heel.Med			L.Heel.Lat			L.Toe.Lat			L.Toe.Med			L.Toe.Tip			Cervical.Spine			Back			
		X1	Y1	Z1	X2	Y2	Z2	X3	Y3	Z3	X4	Y4	Z4	X5	Y5	Z5	X6	Y6	Z6	X7	Y7	Z7	X8	Y8	Z8	X9	Y9	Z9	X10	Y10	Z10	X11	Y11	Z11	X12	Y12	Z12	X13	Y13	Z13	X14	Y14	Z14	X15	Y15	Z15	X16	Y16	Z16	X17	Y17	Z17	X18	Y18	Z18	X19	Y19	Z19	X20	Y20	Z20	X21	Y21	Z21	X22	Y22	Z22	X23	Y23	Z23	X24	Y24	Z24	X25	Y25	Z25	X26	Y26	Z26	X27	Y27	Z27	X28	Y28	Z28	X29	Y29	Z29	X30	Y30	Z30	X31	Y31	Z31	X32	Y32	Z32	X33	Y33	Z33	X34	Y34	Z34	X35	Y35	Z35	X36	Y36	Z36	X37	Y37	Z37	X38	Y38	Z38	X39	Y39	Z39	X40	Y40	Z40	X41	Y41	Z41	X42	Y42	Z42	X43	Y43	Z43	X44	Y44	Z44	X45	Y45	Z45	X46	Y46	Z46	X47	Y47	Z47	X48	Y48	Z48	X49	Y49	Z49	X50	Y50	Z50	X51	Y51	Z51	

205	0.85	-230.28	1184.7	324.75	-346.54	1455	476.43	-365.11	1446.3	167.17	-344.94	1754.5	313.87	-299.09	1032.4	438.24	-314.95	1035.7	193.53	-521.76	1057.6	374.17	-523.08	1055	285.12	-379.94	948.62	513.41	-384.11	945.58	127.76	-379.52	1112.3	485.9	-418.87	1127.8	166.89	-541.99	1021.3	328.47	-391	698.49	480.97	-325.73	596.83	433.91	-402.5	609.29	452.45	-321.14	682.55	465.74	-354.06	521.94	422.78	-369.29	518.14	302.73	-444.62	351.81	428.2	-382.87	286.64	412.14	-454.04	276.64	414.96	-379.81	359.39	426.25	-444.98	91.724	388.76	-415.51	108.61	306.07	-508.44	77.836	338.34	-498.13	45.821	310.05	-505.07	47.717	374.91	-345.09	39.829	426.74	-298.06	44.678	318.56	-250.86	60.788	364.86	-342.65	685.11	162.5	-234.97	625.15	143.16	-294.51	608.24	172.34	-279.82	700.07	128.85	-229.08	544.69	152.82	-182.88	557.11	279.71	-301.65	427.87	151.12	-256.96	327.08	149.95	-315.81	352.42	157.31	-243.15	403.27	144.85	-334.94	152.12	175.54	-297.84	142.23	261.5	-399.75	126.28	244.73	-383	100.21	274.47	-409.27	98.547	218.51	-258.82	60.52	125.95	-197.99	58.948	221.31	-160.44	67.984	153.22	-434.58	1503.3	336.19	-497.42	1242	329.46
206	0.85417	-225.07	1185.1	325.03	-341.06	1455.2	476.33	-359.58	1446.3	167.16	-339.58	1754.5	313.77	-294.38	1032.3	438.4	-309.58	1035.9	193.68	-516.81	1057.6	373.53	-517.95	1055.1	284.5	-375.54	948.6	513.3	-378.29	945.91	127.47	-374.89	1112.3	485.77	-413.43	1127.9	166.72	-536.88	1021.3	327.74	-388.16	698.61	480.77	-323.41	596.54	433.96	-400.1	609.45	452.32	-318.37	682.28	465.73	-352.19	521.74	422.78	-367.24	517.95	302.65	-443.46	351.97	428.08	-381.98	286.63	412.12	-453.14	276.84	414.85	-378.66	359.34	426.19	-444.78	91.866	388.64	-415.24	108.67	305.95	-508.26	77.978	338.22	-497.98	45.918	310	-504.97	47.932	374.84	-345.03	39.78	426.7	-297.98	44.511	318.57	-250.72	60.507	364.88	-337.62	685.18	162.78	-229.77	625.15	144.09	-289.49	608.29	172.95	-274.62	700.11	129.47	-223.67	544.57	153.75	-178.05	557.42	280.64	-293.33	425.69	151.69	-245.68	326.3	149.81	-305.23	349.83	157.4	-234.17	402.86	145.18	-317.91	148.62	174.32	-280.66	139.51	260.34	-381.97	120.52	243.27	-364.47	94.822	272.95	-390.59	92.51	216.9	-238.89	59.662	124.51	-178.17	59.662	219.99	-140.84	70.151	152	-429.09	1503.3	336.1	-492.16	1242.2	329.37
207	0.85833	-219.88	1185.4	325.31	-335.58	1455.3	476.23	-354.05	1446.2	167.15	-334.22	1754.4	313.67	-289.66	1032.2	438.56	-304.17	1035.9	193.82	-511.83	1057.6	372.86	-512.79	1055.1	283.84	-371.15	948.55	513.18	-372.45	946.15	127.18	-370.26	1112.2	485.61	-407.93	1128.1	166.53	-531.75	1021.3	326.98	-385.31	698.71	480.56	-321.06	596.24	434.01	-397.68	609.6	452.17	-315.6	682	465.71	-350.29	521.53	422.77	-365.15	517.75	302.57	-442.29	352.14	427.95	-381.08	286.62	412.12	-452.23	277.05	414.72	-377.5	359.29	426.14	-444.58	92.013	388.51	-414.96	108.73	305.84	-508.08	78.118	338.09	-497.82	46.014	309.95	-504.88	48.145	374.76	-344.98	39.73	426.66	-297.91	44.347	318.57	-250.58	60.23	364.91	-332.73	685.15	163.07	-224.7	624.99	145.03	-284.64	608.2	173.57	-269.54	700.01	130.11	-218.41	544.33	154.67	-173.43	557.56	281.62	-285.06	423.44	152.26	-234.47	325.56	149.69	-294.67	347.26	157.5	-225.26	402.43	145.52	-300.8	145.33	173.15	-263.43	137.03	259.22	-364	114.98	241.86	-345.8	89.714	271.49	-371.74	86.741	215.34	-218.98	59.103	123.15	-158.42	60.68	218.75	-121.37	72.607	150.86	-423.6	1503.3	336.01	-486.89	1242.3	329.26
208	0.8625	-214.7	1185.8	325.6	-330.11	1455.3	476.13	-348.55	1446.1	167.12	-328.84	1754.3	313.55	-284.93	1032.1	438.7	-298.71	1035.9	193.95	-506.85	1057.6	372.16	-507.6	1055.1	283.16	-366.77	948.48	513.04	-366.61	946.31	126.89	-365.64	1112.1	485.42	-402.35	1128.1	166.3	-526.58	1021.3	326.19	-382.45	698.81	480.34	-318.71	595.94	434.04	-395.24	609.73	452.01	-312.83	681.72	465.68	-348.37	521.31	422.77	-363	517.53	302.5	-441.1	352.31	427.8	-380.17	286.6	412.11	-451.31	277.26	414.59	-376.32	359.24	426.08	-444.38	92.165	388.38	-414.68	108.79	305.72	-507.89	78.257	337.95	-497.66	46.11	309.9	-504.79	48.359	374.68	-344.93	39.679	426.61	-297.84	44.187	318.58	-250.44	59.956	364.94	-327.96	685.01	163.35	-219.76	624.67	145.99	-279.94	607.99	174.19	-264.57	699.78	130.76	-213.3	543.95	155.59	-169.02	557.51	282.65	-276.82	421.16	152.83	-223.31	324.88	149.61	-284.12	344.71	157.61	-216.44	401.98	145.89	-283.64	142.26	172.03	-246.17	134.79	258.17	-345.86	109.7	240.51	-327.01	84.903	270.09	-352.75	81.258	213.86	-199.1	58.856	121.87	-138.77	62.016	217.58	-102.04	75.362	149.79	-418.14	1503.2	335.92	-481.62	1242.4	329.14
